<svg width="15" height="13" viewBox="0 0 15 13" fill="none" xmlns="http://www.w3.org/2000/svg">
<path d="M13.9506 6.14347L8.96822 7.56842C8.96822 7.96484 8.81075 8.34502 8.53043 8.62533C8.25012 8.90565 7.86994 9.06312 7.47352 9.06312C7.0771 9.06312 6.69692 8.90565 6.4166 8.62533C6.13629 8.34502 5.97882 7.96484 5.97882 7.56842L0.996469 6.14347L0 5.85449V11.4596C0 11.8561 0.157477 12.2362 0.437789 12.5165C0.7181 12.7969 1.09828 12.9543 1.4947 12.9543H13.4523C13.8488 12.9543 14.2289 12.7969 14.5092 12.5165C14.7896 12.2362 14.947 11.8561 14.947 11.4596V5.85449L13.9506 6.14347Z" fill="#4A75BC"/>
<path d="M13.4523 1.99294H10.4629V1.4947C10.4629 1.09828 10.3054 0.7181 10.0251 0.437789C9.74483 0.157477 9.36464 0 8.96822 0H5.97882C5.5824 0 5.20221 0.157477 4.9219 0.437789C4.64159 0.7181 4.48411 1.09828 4.48411 1.4947V1.99294H1.4947C1.09828 1.99294 0.7181 2.15042 0.437789 2.43073C0.157477 2.71104 0 3.09122 0 3.48764V4.81793L0.996469 5.1069L6.25783 6.60161C6.39615 6.40824 6.5786 6.25066 6.79003 6.14195C7.00146 6.03323 7.23577 5.97652 7.47352 5.97652C7.71126 5.97652 7.94558 6.03323 8.15701 6.14195C8.36844 6.25066 8.55089 6.40824 8.68921 6.60161L13.9506 5.1069L14.947 4.81793V3.48764C14.947 3.09122 14.7896 2.71104 14.5092 2.43073C14.2289 2.15042 13.8488 1.99294 13.4523 1.99294ZM5.48058 1.4947C5.48058 1.36256 5.53307 1.23584 5.62651 1.1424C5.71995 1.04896 5.84668 0.996469 5.97882 0.996469H8.96822C9.10036 0.996469 9.22709 1.04896 9.32053 1.1424C9.41397 1.23584 9.46646 1.36256 9.46646 1.4947V1.99294H5.48058V1.4947Z" fill="#4A75BC"/>
</svg>
