<svg width="18" height="21" viewBox="0 0 18 21" fill="none" xmlns="http://www.w3.org/2000/svg">
<path d="M1.09067 4.62195L2.87537 19.1953C2.98012 20.0516 3.70725 20.6951 4.56999 20.6951H13.4301C14.2928 20.6951 15.0199 20.0516 15.1247 19.1953L16.9094 4.62195H1.09067Z" fill="#F75A4F"/>
<path d="M17.5792 2.25019H12.9886C12.782 2.25019 12.5981 2.1195 12.5301 1.9245L12.1688 0.88731C11.9838 0.356562 11.482 0 10.9199 0H7.08007C6.51803 0 6.01616 0.356605 5.83125 0.88731L5.46986 1.9245C5.40188 2.11954 5.218 2.25019 5.01144 2.25019H0.420789C0.188412 2.25019 0 2.43856 0 2.67098V3.47971C0 3.71209 0.188368 3.9005 0.420789 3.9005H17.5792C17.8116 3.9005 18 3.71213 18 3.47971V2.67098C18 2.4386 17.8116 2.25019 17.5792 2.25019ZM6.94856 1.28534C6.97766 1.20184 7.05658 1.14577 7.14503 1.14577H10.855C10.9434 1.14577 11.0223 1.20184 11.0514 1.28534L11.3876 2.25019H6.61239L6.94856 1.28534Z" fill="#F75A4F"/>
</svg>
